<svg xmlns="http://www.w3.org/2000/svg" version="1.0" viewBox="0 0 600 452"><path d="m478 13-33 2-18 2-5 4-21 20-15 15-16-1c-14-1-20-2-38-7-27-6-32-6-56-1-17 4-38 8-51 8-10 1-10 1-31-19-20-19-19-19-37-21l-10-1H93c-7 1-36 10-41 13-14 8-13 7-25 39L8 114c-4 11-4 10 6 38l8 20 11 8 18 14 26 12q14 5 16 9l2 42 1 40 7 21c8 23 7 22 25 37l12 10c11 9 16 13 39 28 25 17 28 19 54 31l27 12 9 4h30l32-1 11-6 31-11q17-6 35-17l37-28 38-32 7-5 7-22 7-21 1-23 2-62 19-7c18-7 18-8 35-20l18-13 6-16 8-22c3-9 3-9-9-40l-23-59c-2-5-2-5-14-9l-25-9c-17-6-16-6-44-4m37 12 7 3 4 1q3 2 10 3l10 4 5 2q2 0 5 11l5 13 1 6 1 4q3 0 5 5v6l2 5q0 3 2 3c1 0 5 9 4 11q-1 3 2 1l1 1c-1 1 2 11 4 14 2 2 2 8 0 9v1q4 1 1 2l-7 18-3 8-1 5-3 3q-3 1-3 4l-3 3-4 3-3 2-2 2-5 4q-3 1-2 2h-1l-2 1-2 1-1 1q0 2-2 1h-4l-3 3-4 2v1q-2-1-9 2l-7 3-1 1-2 1-4 2h-3c-1 2-7 0-7-3h-3q-2 0 2 2l5 5 2 2-3 2q-2 3-2 10l-1 35-1 28-4 23-1 5-1 1-2 5-3 7-1 4q2 5-6 4-6 0-1 2l2 1-2 2-12 10-3 4-3 3-17 14h-1l-5 3-8 7-4 4-1 1-7 4a172 172 0 0 1-54 28l-1 1q-1-1-7 2l-20 8c-1 1-9 2-35 3h-25l-13-6-15-6a471 471 0 0 1-108-69c-18-14-18-14-25-36s-7-22-7-46c0-43-2-58-6-58l-1-1c2-2-22-15-26-14h-1q1-2-1-2h-2l-4-2-4-3-4-2h-1q1-1-11-10c-14-10-14-10-22-30l-6-16v-9l4-7 3-9v-2l1-2 16-38c0-4 5-15 10-21a94 94 0 0 1 44-16h2a235 235 0 0 1 65 0l2 2q1 4 4 1c4-2 4-2 14 8l19 17 2 2q0 2 5 4c4 2 7 8 4 8l-1 1q0 4 3-1 1-4 7-2c5 1 18 0 20-1l6-1 33-6q8-2 10-1l2-1c1-2 2-2 19-2l12 3 6 1 4 2 8 1 8 2c11 2 34 4 36 2 2-1 7 0 7 2q1 2 1-1-1-2 3-5l4-5h1l3-2 6-5q7-5 6-9l2-1c2 0 9-5 8-6l6-3 1-1c0-3 1-3 14-2l13-1 33-3h16z"/><path d="M427 53q-5 6-8 7l-3 3-5 6-5 6c1 1 12-11 11-12l1-1 3-2h2l1-1 5-6 4-5zM58 91l1 13V88l-1-14zm345-14-2 2-1 1h-1l-2-3c-2 0-1 5 0 6l2 1 6-8zm-198 3-2 5v3l4-6zm46 4q-9 10-7 13l1 1 1-2v-2c0-2 8-9 10-9q3-1-1-3-2-1-4 2m72 7h-3q-4 2-1 2 5 1 5-3zm-11 5h3l1-1zm-8 1-3 1q-3 0-1 1v1l-1 1h7q1-1-1-3-1-3-1-1m-65 2-4 6c-6 7-6 6-11 14l-7 9q-6 5-7 18l-1 11v1q3 1 2-2l1-3v-1l-1-3 2-8q0-5 4-7l5-5 1-1v-2l1-2 2-3 3-4 2-2 4-6 4-6 2-3 2-2h-2zm240 0q-3 1 0 1l3 1 4 1 2 1 4 1 8 2 6 1 7 2 10 2 6 1-4-1-5-2-4-1c-4-2-16-6-20-6h-5q-2 2-1-1l-4-1-5-1zm-192 2q0 3-2 1 0-2-2-2l1 2q1 2-4 2-3 0-1 1 5 1 6-1l4-1q9-1 2-3-4-1-4 1m175 2q-6 6 0 2l4-6zm-171 18-1 11v7q1 6-1 4v32c-1 35 0 26 2-14zm-28-9q-5 1 1 1 5 0 3-2zm-200 6c-1 1 8 10 8 9 1-1 5 3 4 4l2 1q8 0-6-8l-5-5zm467 6q-10 5-3 4 7 0 6-4 0-3-3 0m18-1q-8 3 1 2 7 0 6-2zm11 1h6l-4-1q-4 0-2 1M93 137q-2 3 3 3 2-1 3 1h3l3 1v-2l-4-1-4-1q-3-3-4-1m14 6 1 1 7 2 6 3 1 1 3 1q2 0 3 3 0 6 3 0 2-5-5-5l-9-4-4-1-4-2zm320 0 7 6 16 15 14 13 9 8 15 12-5-6q-5-5-5-8l-2-3-1-2-1-5-2-3 1 4v4l-3-2q-10-4-9-6h2q1 2 1-1l-2-1q-4 1-6-5h-1c-1 0-7-6-7-8h-1l-3-1q-3-3 0-4h3q1 3 1 1c0-1 6-1 7 1q2 2 6 1l4 1 2 3q2 3 2-1 0-6-5-6l-20-4-5-1-4-1zm-255 2-2 2-3 4-2 3c2-1 11-4 11-2l1 9 2 8 1 5 1 6q2 1 1 3l1 3 1 7 1 6c1 0 2-5 1-7l-1-4v-2l-1-3-1-3-2-4v-6l-2-7-1-7-1-3q0-3-2-3v-3q1-6-3-2m133 7 1 10q1 1 1-8l-1-10zm-146 5v2l-1 1-2 1-2 2-2 1c0 3 7-1 8-5q3-5-1-2"/><path d="m469 162 2 5h1l-1-5-1-2zm-259 1c-1 1 0 13 2 14h1l-1-1-1-6q0-9-1-7m-2 28v8c1 0 2-10 1-13zm100 6v14l1-8c0-7-1-12-1-6m-121 2v3l1 2v-2q1-4-1-3m20 9v8l1-8q0-15-1 0m-18 2 1 6 2 6q1 9 1 2l-2-12-1-3-1-3zm98 7v11q1 1 1-9 0-20-1-2m-80 6-1 7q0 8 1-1zm-14 7 3 9v-2l-1-5-1-4zm96 12 2 6 2 4-1-7-1-3-1-2zm-92 2q2 8 3 6l-1-2-1-4-1-3zm98 9c-1 2 0 11 2 11q3 0 0-7zm-14 17-4 2q-4 2-1 3c2 0 8-5 7-5zm36 5 10 5-4-2zm-51 3q-5 5 0 3l3-3q0-3-3 0m-8 5-2 3q0 2 3-1 4-5-1-2m99 16q-3 2 2 2t3-2zm-113 2q0 3 3 2l1 1 2 3h1l-1-2c0-2-6-5-7-4m136 3 8 3 7 3h2q-1-3-3-3l-4-1c-4-2-10-3-10-2m-125 4 2 1 3 2 4 3 7 5 17 12 9 2 6 1v1l1 5v4l2-3 1-5 1-4q4-2-8-2c-8 1-9 1-11-1l-3-2-1-1-1-1-3-2-3-1-2-1q0-3-4-4l-6-3q-1-3-7-4l-2-2zm170 8-1 1h1l3 1 7 1 9 3c1 1 8 3 8 1l-3-1h-2l-5-3-6-1-4-1-5-1zm-105 25 19 16 15 14 7 4 9 6 4 2 3 2h1q3 0-7-6l-23-18-3-2-11-9z"/></svg>